<svg width="136" height="48" viewBox="0 0 136 48" fill="none" xmlns="http://www.w3.org/2000/svg">
<g clip-path="url(#clip0_61217_404)">
<path d="M44.9483 24.1984L41.8696 7.69843C41.7943 7.29623 41.6376 6.91368 41.4091 6.57429C41.1805 6.2349 40.885 5.94585 40.5406 5.72492C40.1962 5.50398 39.8102 5.35584 39.4065 5.28959C39.0027 5.22334 38.5896 5.24038 38.1927 5.33968L38.1346 5.35655L28.2871 8.26093H19.7183L9.87081 5.36592L9.81269 5.34905C9.41575 5.24976 9.00269 5.23271 8.59892 5.29896C8.19515 5.36521 7.8092 5.51336 7.46481 5.73429C7.12041 5.95523 6.82485 6.24427 6.5963 6.58366C6.36775 6.92305 6.21104 7.30561 6.13581 7.7078L3.05706 24.1984C2.92541 24.8589 3.02313 25.5444 3.33408 26.1418C3.64502 26.7391 4.15056 27.2124 4.76706 27.4834C5.16188 27.6645 5.59083 27.7591 6.02519 27.7609C6.54507 27.7607 7.05535 27.6208 7.50269 27.3559V35.2609C7.50269 37.25 8.29286 39.1577 9.69939 40.5642C11.1059 41.9707 13.0136 42.7609 15.0027 42.7609H33.0027C34.9918 42.7609 36.8995 41.9707 38.306 40.5642C39.7125 39.1577 40.5027 37.25 40.5027 35.2609V27.3578C40.9496 27.6222 41.4591 27.762 41.9783 27.7628C42.4131 27.7615 42.8427 27.6676 43.2383 27.4872C43.8556 27.2161 44.3616 26.7422 44.6726 26.144C44.9836 25.5459 45.0809 24.8594 44.9483 24.1984ZM33.0027 39.7609H25.5027V37.3815L28.0639 34.8222C28.3454 34.5407 28.5035 34.159 28.5035 33.7609C28.5035 33.3629 28.3454 32.9811 28.0639 32.6997C27.7825 32.4182 27.4007 32.2601 27.0027 32.2601C26.6046 32.2601 26.2229 32.4182 25.9414 32.6997L24.0027 34.6403L22.0639 32.6997C21.7825 32.4182 21.4007 32.2601 21.0027 32.2601C20.6046 32.2601 20.2229 32.4182 19.9414 32.6997C19.66 32.9811 19.5019 33.3629 19.5019 33.7609C19.5019 34.159 19.66 34.5407 19.9414 34.8222L22.5027 37.3815V39.7609H15.0027C13.8092 39.7609 12.6646 39.2868 11.8207 38.4429C10.9768 37.599 10.5027 36.4544 10.5027 35.2609V23.844L20.2396 11.2609H27.7658L37.5027 23.844V35.2609C37.5027 36.4544 37.0286 37.599 36.1847 38.4429C35.3408 39.2868 34.1962 39.7609 33.0027 39.7609ZM19.5027 27.0109C19.5027 27.4559 19.3707 27.8909 19.1235 28.261C18.8763 28.631 18.5249 28.9194 18.1137 29.0897C17.7026 29.26 17.2502 29.3045 16.8137 29.2177C16.3773 29.1309 15.9764 28.9166 15.6617 28.6019C15.347 28.2872 15.1327 27.8863 15.0459 27.4499C14.9591 27.0134 15.0037 26.561 15.174 26.1499C15.3443 25.7388 15.6326 25.3874 16.0027 25.1401C16.3727 24.8929 16.8077 24.7609 17.2527 24.7609C17.8494 24.7609 18.4217 24.998 18.8437 25.4199C19.2656 25.8419 19.5027 26.4142 19.5027 27.0109ZM33.0027 27.0109C33.0027 27.4559 32.8707 27.8909 32.6235 28.261C32.3763 28.631 32.0249 28.9194 31.6137 29.0897C31.2026 29.26 30.7502 29.3045 30.3137 29.2177C29.8773 29.1309 29.4764 28.9166 29.1617 28.6019C28.847 28.2872 28.6327 27.8863 28.5459 27.4499C28.4591 27.0134 28.5037 26.561 28.674 26.1499C28.8443 25.7388 29.1326 25.3874 29.5027 25.1401C29.8727 24.8929 30.3077 24.7609 30.7527 24.7609C31.3494 24.7609 31.9217 24.998 32.3437 25.4199C32.7656 25.8419 33.0027 26.4142 33.0027 27.0109Z" fill="#CD8705"/>
<path d="M68.4961 32.502V36H50.7246V32.502H68.4961ZM68.0918 13.1309L52.3594 36H49.4062V33.2051L65.1914 10.4062H68.0918V13.1309ZM66.457 10.4062V13.9219H49.5117V10.4062H66.457ZM89.0801 32.502V36H75.4922V32.502H89.0801ZM76.7402 10.4062V36H72.3281V10.4062H76.7402ZM87.3047 21.0938V24.5391H75.4922V21.0938H87.3047ZM88.9922 10.4062V13.9219H75.4922V10.4062H88.9922ZM107.045 10.4062H111.439V27.5098C111.439 29.4551 111.018 31.084 110.174 32.3965C109.33 33.709 108.182 34.6992 106.729 35.3672C105.287 36.0234 103.676 36.3516 101.895 36.3516C100.055 36.3516 98.4141 36.0234 96.9727 35.3672C95.5312 34.6992 94.3945 33.709 93.5625 32.3965C92.7422 31.084 92.332 29.4551 92.332 27.5098V10.4062H96.7266V27.5098C96.7266 28.7402 96.9375 29.7539 97.3594 30.5508C97.7812 31.3359 98.3789 31.916 99.1523 32.291C99.9258 32.666 100.84 32.8535 101.895 32.8535C102.949 32.8535 103.857 32.666 104.619 32.291C105.393 31.916 105.99 31.3359 106.412 30.5508C106.834 29.7539 107.045 28.7402 107.045 27.5098V10.4062ZM129.703 29.4082C129.703 28.8809 129.621 28.4121 129.457 28.002C129.305 27.5918 129.029 27.2168 128.631 26.877C128.232 26.5371 127.67 26.209 126.943 25.8926C126.229 25.5645 125.314 25.2305 124.201 24.8906C122.982 24.5156 121.857 24.0996 120.826 23.6426C119.807 23.1738 118.916 22.6348 118.154 22.0254C117.393 21.4043 116.801 20.6953 116.379 19.8984C115.957 19.0898 115.746 18.1582 115.746 17.1035C115.746 16.0605 115.963 15.1113 116.396 14.2559C116.842 13.4004 117.469 12.6621 118.277 12.041C119.098 11.4082 120.064 10.9219 121.178 10.582C122.291 10.2305 123.521 10.0547 124.869 10.0547C126.768 10.0547 128.402 10.4062 129.773 11.1094C131.156 11.8125 132.217 12.7559 132.955 13.9395C133.705 15.123 134.08 16.4297 134.08 17.8594H129.703C129.703 17.0156 129.521 16.2715 129.158 15.627C128.807 14.9707 128.268 14.4551 127.541 14.0801C126.826 13.7051 125.918 13.5176 124.816 13.5176C123.773 13.5176 122.906 13.6758 122.215 13.9922C121.523 14.3086 121.008 14.7363 120.668 15.2754C120.328 15.8145 120.158 16.4238 120.158 17.1035C120.158 17.584 120.27 18.0234 120.492 18.4219C120.715 18.8086 121.055 19.1719 121.512 19.5117C121.969 19.8398 122.543 20.1504 123.234 20.4434C123.926 20.7363 124.74 21.0176 125.678 21.2871C127.096 21.709 128.332 22.1777 129.387 22.6934C130.441 23.1973 131.32 23.7715 132.023 24.416C132.727 25.0605 133.254 25.793 133.605 26.6133C133.957 27.4219 134.133 28.3418 134.133 29.373C134.133 30.4512 133.916 31.4238 133.482 32.291C133.049 33.1465 132.428 33.8789 131.619 34.4883C130.822 35.0859 129.861 35.5488 128.736 35.877C127.623 36.1934 126.381 36.3516 125.01 36.3516C123.779 36.3516 122.566 36.1875 121.371 35.8594C120.188 35.5312 119.109 35.0332 118.137 34.3652C117.164 33.6855 116.391 32.8418 115.816 31.834C115.242 30.8145 114.955 29.625 114.955 28.2656H119.367C119.367 29.0977 119.508 29.8066 119.789 30.3926C120.082 30.9785 120.486 31.459 121.002 31.834C121.518 32.1973 122.115 32.4668 122.795 32.6426C123.486 32.8184 124.225 32.9062 125.01 32.9062C126.041 32.9062 126.902 32.7598 127.594 32.4668C128.297 32.1738 128.824 31.7637 129.176 31.2363C129.527 30.709 129.703 30.0996 129.703 29.4082Z" fill="#CD8705"/>
</g>
<defs>
<clipPath id="clip0_61217_404">
<rect width="136" height="48" fill="white"/>
</clipPath>
</defs>
</svg>
