<svg width="137" height="48" viewBox="0 0 137 48" fill="none" xmlns="http://www.w3.org/2000/svg">
<g clip-path="url(#clip0_61221_584)">
<path d="M45.4483 24.1984L42.3696 7.69843C42.2943 7.29623 42.1376 6.91368 41.9091 6.57429C41.6805 6.2349 41.385 5.94585 41.0406 5.72492C40.6962 5.50398 40.3102 5.35584 39.9065 5.28959C39.5027 5.22334 39.0896 5.24038 38.6927 5.33968L38.6346 5.35655L28.7871 8.26093H20.2183L10.3708 5.36592L10.3127 5.34905C9.91575 5.24976 9.50269 5.23271 9.09892 5.29896C8.69515 5.36521 8.3092 5.51336 7.96481 5.73429C7.62041 5.95523 7.32485 6.24427 7.0963 6.58366C6.86775 6.92305 6.71104 7.30561 6.63581 7.7078L3.55706 24.1984C3.42541 24.8589 3.52313 25.5444 3.83408 26.1418C4.14502 26.7391 4.65056 27.2124 5.26706 27.4834C5.66188 27.6645 6.09083 27.7591 6.52519 27.7609C7.04507 27.7607 7.55535 27.6208 8.00269 27.3559V35.2609C8.00269 37.25 8.79286 39.1577 10.1994 40.5642C11.6059 41.9707 13.5136 42.7609 15.5027 42.7609H33.5027C35.4918 42.7609 37.3995 41.9707 38.806 40.5642C40.2125 39.1577 41.0027 37.25 41.0027 35.2609V27.3578C41.4496 27.6222 41.9591 27.762 42.4783 27.7628C42.9131 27.7615 43.3427 27.6676 43.7383 27.4872C44.3556 27.2161 44.8616 26.7422 45.1726 26.144C45.4836 25.5459 45.5809 24.8594 45.4483 24.1984ZM33.5027 39.7609H26.0027V37.3815L28.5639 34.8222C28.8454 34.5407 29.0035 34.159 29.0035 33.7609C29.0035 33.3629 28.8454 32.9811 28.5639 32.6997C28.2825 32.4182 27.9007 32.2601 27.5027 32.2601C27.1046 32.2601 26.7229 32.4182 26.4414 32.6997L24.5027 34.6403L22.5639 32.6997C22.2825 32.4182 21.9007 32.2601 21.5027 32.2601C21.1046 32.2601 20.7229 32.4182 20.4414 32.6997C20.16 32.9811 20.0019 33.3629 20.0019 33.7609C20.0019 34.159 20.16 34.5407 20.4414 34.8222L23.0027 37.3815V39.7609H15.5027C14.3092 39.7609 13.1646 39.2868 12.3207 38.4429C11.4768 37.599 11.0027 36.4544 11.0027 35.2609V23.844L20.7396 11.2609H28.2658L38.0027 23.844V35.2609C38.0027 36.4544 37.5286 37.599 36.6847 38.4429C35.8408 39.2868 34.6962 39.7609 33.5027 39.7609ZM20.0027 27.0109C20.0027 27.4559 19.8707 27.8909 19.6235 28.261C19.3763 28.631 19.0249 28.9194 18.6137 29.0897C18.2026 29.26 17.7502 29.3045 17.3137 29.2177C16.8773 29.1309 16.4764 28.9166 16.1617 28.6019C15.847 28.2872 15.6327 27.8863 15.5459 27.4499C15.4591 27.0134 15.5037 26.561 15.674 26.1499C15.8443 25.7388 16.1326 25.3874 16.5027 25.1401C16.8727 24.8929 17.3077 24.7609 17.7527 24.7609C18.3494 24.7609 18.9217 24.998 19.3437 25.4199C19.7656 25.8419 20.0027 26.4142 20.0027 27.0109ZM33.5027 27.0109C33.5027 27.4559 33.3707 27.8909 33.1235 28.261C32.8763 28.631 32.5249 28.9194 32.1137 29.0897C31.7026 29.26 31.2502 29.3045 30.8137 29.2177C30.3773 29.1309 29.9764 28.9166 29.6617 28.6019C29.347 28.2872 29.1327 27.8863 29.0459 27.4499C28.9591 27.0134 29.0037 26.561 29.174 26.1499C29.3443 25.7388 29.6326 25.3874 30.0027 25.1401C30.3727 24.8929 30.8077 24.7609 31.2527 24.7609C31.8494 24.7609 32.4217 24.998 32.8437 25.4199C33.2656 25.8419 33.5027 26.4142 33.5027 27.0109Z" fill="#FF872C"/>
<path d="M68.9961 32.502V36H51.2246V32.502H68.9961ZM68.5918 13.1309L52.8594 36H49.9062V33.2051L65.6914 10.4062H68.5918V13.1309ZM66.957 10.4062V13.9219H50.0117V10.4062H66.957ZM89.5801 32.502V36H75.9922V32.502H89.5801ZM77.2402 10.4062V36H72.8281V10.4062H77.2402ZM87.8047 21.0938V24.5391H75.9922V21.0938H87.8047ZM89.4922 10.4062V13.9219H75.9922V10.4062H89.4922ZM107.545 10.4062H111.939V27.5098C111.939 29.4551 111.518 31.084 110.674 32.3965C109.83 33.709 108.682 34.6992 107.229 35.3672C105.787 36.0234 104.176 36.3516 102.395 36.3516C100.555 36.3516 98.9141 36.0234 97.4727 35.3672C96.0312 34.6992 94.8945 33.709 94.0625 32.3965C93.2422 31.084 92.832 29.4551 92.832 27.5098V10.4062H97.2266V27.5098C97.2266 28.7402 97.4375 29.7539 97.8594 30.5508C98.2812 31.3359 98.8789 31.916 99.6523 32.291C100.426 32.666 101.34 32.8535 102.395 32.8535C103.449 32.8535 104.357 32.666 105.119 32.291C105.893 31.916 106.49 31.3359 106.912 30.5508C107.334 29.7539 107.545 28.7402 107.545 27.5098V10.4062ZM130.203 29.4082C130.203 28.8809 130.121 28.4121 129.957 28.002C129.805 27.5918 129.529 27.2168 129.131 26.877C128.732 26.5371 128.17 26.209 127.443 25.8926C126.729 25.5645 125.814 25.2305 124.701 24.8906C123.482 24.5156 122.357 24.0996 121.326 23.6426C120.307 23.1738 119.416 22.6348 118.654 22.0254C117.893 21.4043 117.301 20.6953 116.879 19.8984C116.457 19.0898 116.246 18.1582 116.246 17.1035C116.246 16.0605 116.463 15.1113 116.896 14.2559C117.342 13.4004 117.969 12.6621 118.777 12.041C119.598 11.4082 120.564 10.9219 121.678 10.582C122.791 10.2305 124.021 10.0547 125.369 10.0547C127.268 10.0547 128.902 10.4062 130.273 11.1094C131.656 11.8125 132.717 12.7559 133.455 13.9395C134.205 15.123 134.58 16.4297 134.58 17.8594H130.203C130.203 17.0156 130.021 16.2715 129.658 15.627C129.307 14.9707 128.768 14.4551 128.041 14.0801C127.326 13.7051 126.418 13.5176 125.316 13.5176C124.273 13.5176 123.406 13.6758 122.715 13.9922C122.023 14.3086 121.508 14.7363 121.168 15.2754C120.828 15.8145 120.658 16.4238 120.658 17.1035C120.658 17.584 120.77 18.0234 120.992 18.4219C121.215 18.8086 121.555 19.1719 122.012 19.5117C122.469 19.8398 123.043 20.1504 123.734 20.4434C124.426 20.7363 125.24 21.0176 126.178 21.2871C127.596 21.709 128.832 22.1777 129.887 22.6934C130.941 23.1973 131.82 23.7715 132.523 24.416C133.227 25.0605 133.754 25.793 134.105 26.6133C134.457 27.4219 134.633 28.3418 134.633 29.373C134.633 30.4512 134.416 31.4238 133.982 32.291C133.549 33.1465 132.928 33.8789 132.119 34.4883C131.322 35.0859 130.361 35.5488 129.236 35.877C128.123 36.1934 126.881 36.3516 125.51 36.3516C124.279 36.3516 123.066 36.1875 121.871 35.8594C120.688 35.5312 119.609 35.0332 118.637 34.3652C117.664 33.6855 116.891 32.8418 116.316 31.834C115.742 30.8145 115.455 29.625 115.455 28.2656H119.867C119.867 29.0977 120.008 29.8066 120.289 30.3926C120.582 30.9785 120.986 31.459 121.502 31.834C122.018 32.1973 122.615 32.4668 123.295 32.6426C123.986 32.8184 124.725 32.9062 125.51 32.9062C126.541 32.9062 127.402 32.7598 128.094 32.4668C128.797 32.1738 129.324 31.7637 129.676 31.2363C130.027 30.709 130.203 30.0996 130.203 29.4082Z" fill="#FF872C"/>
</g>
<defs>
<clipPath id="clip0_61221_584">
<rect width="136" height="48" fill="white" transform="translate(0.5)"/>
</clipPath>
</defs>
</svg>
